<svg width="157.39mm" height="69.861mm" version="1.1" viewBox="0 0 157.39 69.861" xmlns="http://www.w3.org/2000/svg"><g transform="translate(-27.051 -25.095)"><g><rect x="27.051" y="25.095" width="157.39" height="69.861" fill="#fffef9"/><g stroke-dasharray="0.249, 0.497999" stroke-linecap="round" stroke-width=".249"><circle cx="68.269" cy="60.22" r="24.737" fill="#f2cd00"/><path d="m75.068 29.001-7.4469 27.601 16.843 1.1723 11.159 17.433 8.6101-36.827z"/><path d="m34.405 71.245 22.776-24.071-8.3167 40.127z"/></g></g><circle cx="68.269" cy="60.22" r="24.737" fill="none" stroke="#f2cd00" stroke-dasharray="1.347, 1.347" stroke-linecap="round" stroke-width=".449"/><g transform="matrix(1.0658 0 0 1.0658 -76.801 -94.137)" fill="#fffef9" stroke="#252525" stroke-linecap="round"><g stroke-width=".42942"><path transform="matrix(.86703 0 0 1.0007 14.972 -.10557)" d="m112.73 121.29h54.198"/><path transform="matrix(.86703 0 0 1.0007 14.972 -.10557)" d="m112.73 124.22h54.198"/><path transform="matrix(.86703 0 0 1.0007 14.972 -.10557)" d="m112.73 127.16h54.198"/><path transform="matrix(.86703 0 0 1.0007 14.972 -.10557)" d="m112.73 130.09h54.198"/><path transform="matrix(.86703 0 0 1.0007 14.972 -.10557)" d="m112.73 133.03h54.198"/><path transform="matrix(.86703 0 0 1.0007 14.972 -.10557)" d="m112.73 135.97h54.198"/><path transform="matrix(.86703 0 0 1.0007 14.972 -.10557)" d="m112.73 138.9h54.198"/><path transform="matrix(.86703 0 0 1.0007 14.972 -.10557)" d="m112.73 141.84h54.198"/><path transform="matrix(.86703 0 0 1.0007 14.972 -.10557)" d="m112.73 144.78h54.198"/><path transform="matrix(.86703 0 0 1.0007 14.972 -.10557)" d="m112.73 147.71h54.198"/><path transform="matrix(.86703 0 0 1.0007 14.972 -.10557)" d="m112.73 150.65h54.198"/><path transform="matrix(.86703 0 0 1.0007 14.972 -.10557)" d="m112.73 153.59h54.198"/><path transform="matrix(.86703 0 0 1.0007 14.972 -.10557)" d="m112.73 156.52h54.198"/><path transform="matrix(.86703 0 0 1.0007 14.972 -.10557)" d="m112.73 159.46h54.198"/><path transform="matrix(.86703 0 0 1.0007 14.972 -.10557)" d="m112.73 162.39h54.198"/><path transform="matrix(.86703 0 0 1.0007 14.972 -.10557)" d="m112.73 165.33h54.198"/><path transform="matrix(.86703 0 0 1.0007 14.972 -.10557)" d="m112.73 168.27h54.198"/></g><g transform="matrix(1.0007 0 0 .86438 -4.3803 20.595)" stroke-width=".43008"><path d="m163.98 116.47v54.198"/><path d="m161.05 116.47v54.198"/><path d="m158.11 116.47v54.198"/><path d="m155.17 116.47v54.198"/><path d="m152.24 116.47v54.198"/><path d="m149.3 116.47v54.198"/><path d="m146.36 116.47v54.198"/><path d="m143.43 116.47v54.198"/><path d="m140.49 116.47v54.198"/><path d="m137.56 116.47v54.198"/><path d="m134.62 116.47v54.198"/><path d="m131.68 116.47v54.198"/><path d="m128.75 116.47v54.198"/><path d="m125.81 116.47v54.198"/><path d="m122.87 116.47v54.198"/><path d="m119.94 116.47v54.198"/><path d="m117 116.47v54.198"/></g></g><g transform="matrix(.77656 0 0 .77656 12.371 -56.276)"><g fill="#f2cd00"><rect x="136.45" y="138.48" width="4" height="4"/><rect x="140.45" y="138.48" width="4" height="4"/><rect x="144.45" y="138.48" width="4" height="4"/></g><rect x="148.45" y="138.48" width="4" height="4"/><g fill="#f2cd00"><rect x="152.45" y="138.48" width="4" height="4"/><rect x="156.45" y="138.48" width="4" height="4"/><rect x="160.45" y="138.48" width="4" height="4"/><rect x="164.45" y="138.48" width="4" height="4"/></g><g fill="#030100"><rect x="168.45" y="138.48" width="4" height="4"/><rect x="172.45" y="138.48" width="4" height="4"/><rect x="176.45" y="138.48" width="4" height="4"/><rect x="180.45" y="138.48" width="4" height="4"/><rect x="184.45" y="138.48" width="4" height="4"/><rect x="188.45" y="138.48" width="4" height="4"/><rect x="192.45" y="138.48" width="4" height="4"/><rect x="196.45" y="138.48" width="4" height="4"/></g><rect x="136.45" y="134.48" width="4" height="4" fill="#070200"/><g fill="#f2cd00"><rect x="140.45" y="134.48" width="4" height="4"/><rect x="144.45" y="134.48" width="4" height="4"/><rect x="148.45" y="134.48" width="4" height="4"/><rect x="152.45" y="134.48" width="4" height="4"/><rect x="156.45" y="134.48" width="4" height="4"/><rect x="160.45" y="134.48" width="4" height="4"/><rect x="164.45" y="134.48" width="4" height="4"/></g><g fill="#030100"><rect x="168.45" y="134.48" width="4" height="4"/><rect x="172.45" y="134.48" width="4" height="4"/><rect x="176.45" y="134.48" width="4" height="4"/><rect x="180.45" y="134.48" width="4" height="4"/><rect x="184.45" y="134.48" width="4" height="4"/><rect x="188.45" y="134.48" width="4" height="4"/><rect x="192.45" y="134.48" width="4" height="4"/><rect x="196.45" y="134.48" width="4" height="4"/></g><rect x="136.45" y="146.48" width="4" height="4" fill="#f2cd00"/><g><rect x="140.45" y="146.48" width="4" height="4"/><rect x="144.45" y="146.48" width="4" height="4"/><rect x="148.45" y="146.48" width="4" height="4"/></g><g fill="#f2cd00"><rect x="152.45" y="146.48" width="4" height="4"/><rect x="156.45" y="146.48" width="4" height="4"/><rect x="160.45" y="146.48" width="4" height="4"/><rect x="164.45" y="146.48" width="4" height="4"/><rect x="168.45" y="146.48" width="4" height="4"/><rect x="172.45" y="146.48" width="4" height="4"/><rect x="176.45" y="146.48" width="4" height="4"/><rect x="180.45" y="146.48" width="4" height="4"/><rect x="184.45" y="146.48" width="4" height="4"/></g><g fill="#030100"><rect x="188.45" y="146.48" width="4" height="4"/><rect x="192.45" y="146.48" width="4" height="4"/><rect x="196.45" y="146.48" width="4" height="4"/></g><rect x="136.45" y="142.48" width="4" height="4" fill="#f2cd00"/><rect x="140.45" y="142.48" width="4" height="4" fill="#f2cd00"/><rect x="144.45" y="142.48" width="4" height="4"/><rect x="148.45" y="142.48" width="4" height="4"/><g fill="#f2cd00"><rect x="152.45" y="142.48" width="4" height="4"/><rect x="156.45" y="142.48" width="4" height="4"/><rect x="160.45" y="142.48" width="4" height="4"/><rect x="164.45" y="142.48" width="4" height="4"/></g><g fill="#030100"><rect x="168.45" y="142.48" width="4" height="4"/><rect x="172.45" y="142.48" width="4" height="4"/><rect x="176.45" y="142.48" width="4" height="4"/><rect x="180.45" y="142.48" width="4" height="4"/><rect x="184.45" y="142.48" width="4" height="4"/><rect x="188.45" y="142.48" width="4" height="4"/><rect x="192.45" y="142.48" width="4" height="4"/><rect x="196.45" y="142.48" width="4" height="4"/></g><g fill="#070200"><rect x="136.45" y="122.48" width="4" height="4"/><rect x="140.45" y="122.48" width="4" height="4"/><rect x="144.45" y="122.48" width="4" height="4"/></g><g fill="#f2cd00"><rect x="148.45" y="122.48" width="4" height="4"/><rect x="152.45" y="122.48" width="4" height="4"/><rect x="156.45" y="122.48" width="4" height="4"/><rect x="160.45" y="122.48" width="4" height="4"/><rect x="164.45" y="122.48" width="4" height="4"/><rect x="168.45" y="122.48" width="4" height="4"/></g><g fill="#030100"><rect x="172.45" y="122.48" width="4" height="4"/><rect x="176.45" y="122.48" width="4" height="4"/><rect x="180.45" y="122.48" width="4" height="4"/><rect x="184.45" y="122.48" width="4" height="4"/><rect x="188.45" y="122.48" width="4" height="4"/><rect x="192.45" y="122.48" width="4" height="4"/><rect x="196.45" y="122.48" width="4" height="4"/></g><rect x="136.45" y="118.48" width="4" height="4"/><rect x="140.45" y="118.48" width="4" height="4"/><g fill="#070200"><rect x="144.45" y="118.48" width="4" height="4"/><rect x="148.45" y="118.48" width="4" height="4"/><rect x="152.45" y="118.48" width="4" height="4"/></g><g fill="#f2cd00"><rect x="156.45" y="118.48" width="4" height="4"/><rect x="160.45" y="118.48" width="4" height="4"/><rect x="164.45" y="118.48" width="4" height="4"/><rect x="168.45" y="118.48" width="4" height="4"/></g><g fill="#030100"><rect x="172.45" y="118.48" width="4" height="4"/><rect x="176.45" y="118.48" width="4" height="4"/><rect x="180.45" y="118.48" width="4" height="4"/><rect x="184.45" y="118.48" width="4" height="4"/><rect x="188.45" y="118.48" width="4" height="4"/><rect x="192.45" y="118.48" width="4" height="4"/><rect x="196.45" y="118.48" width="4" height="4"/></g><rect x="136.45" y="130.48" width="4" height="4" fill="#070200"/><g fill="#f2cd00"><rect x="140.45" y="130.48" width="4" height="4"/><rect x="144.45" y="130.48" width="4" height="4"/><rect x="148.45" y="130.48" width="4" height="4"/><rect x="152.45" y="130.48" width="4" height="4"/><rect x="156.45" y="130.48" width="4" height="4"/><rect x="160.45" y="130.48" width="4" height="4"/><rect x="164.45" y="130.48" width="4" height="4"/><rect x="168.45" y="130.48" width="4" height="4"/></g><g fill="#030100"><rect x="172.45" y="130.48" width="4" height="4"/><rect x="176.45" y="130.48" width="4" height="4"/><rect x="180.45" y="130.48" width="4" height="4"/><rect x="184.45" y="130.48" width="4" height="4"/><rect x="188.45" y="130.48" width="4" height="4"/><rect x="192.45" y="130.48" width="4" height="4"/><rect x="196.45" y="130.48" width="4" height="4"/></g><rect x="136.45" y="126.48" width="4" height="4" fill="#070200"/><rect x="140.45" y="126.48" width="4" height="4" fill="#070200"/><g fill="#f2cd00"><rect x="144.45" y="126.48" width="4" height="4"/><rect x="148.45" y="126.48" width="4" height="4"/><rect x="152.45" y="126.48" width="4" height="4"/><rect x="156.45" y="126.48" width="4" height="4"/><rect x="160.45" y="126.48" width="4" height="4"/><rect x="164.45" y="126.48" width="4" height="4"/><rect x="168.45" y="126.48" width="4" height="4"/></g><g fill="#030100"><rect x="172.45" y="126.48" width="4" height="4"/><rect x="176.45" y="126.48" width="4" height="4"/><rect x="180.45" y="126.48" width="4" height="4"/><rect x="184.45" y="126.48" width="4" height="4"/><rect x="188.45" y="126.48" width="4" height="4"/><rect x="192.45" y="126.48" width="4" height="4"/><rect x="196.45" y="126.48" width="4" height="4"/></g><rect x="136.45" y="170.48" width="4" height="4"/><rect x="140.45" y="170.48" width="4" height="4"/><g fill="#f2cd00"><rect x="144.45" y="170.48" width="4" height="4"/><rect x="148.45" y="170.48" width="4" height="4"/><rect x="152.45" y="170.48" width="4" height="4"/><rect x="156.45" y="170.48" width="4" height="4"/><rect x="160.45" y="170.48" width="4" height="4"/><rect x="164.45" y="170.48" width="4" height="4"/><rect x="168.45" y="170.48" width="4" height="4"/><rect x="172.45" y="170.48" width="4" height="4"/><rect x="176.45" y="170.48" width="4" height="4"/><rect x="180.45" y="170.48" width="4" height="4"/><rect x="184.45" y="170.48" width="4" height="4"/><rect x="188.45" y="170.48" width="4" height="4"/></g><rect x="192.45" y="170.48" width="4" height="4" fill="#030100"/><rect x="196.45" y="170.48" width="4" height="4" fill="#030100"/><g><rect x="136.45" y="166.48" width="4" height="4"/><rect x="140.45" y="166.48" width="4" height="4"/><rect x="144.45" y="166.48" width="4" height="4"/></g><g fill="#f2cd00"><rect x="148.45" y="166.48" width="4" height="4"/><rect x="152.45" y="166.48" width="4" height="4"/><rect x="156.45" y="166.48" width="4" height="4"/><rect x="160.45" y="166.48" width="4" height="4"/><rect x="164.45" y="166.48" width="4" height="4"/><rect x="168.45" y="166.48" width="4" height="4"/><rect x="172.45" y="166.48" width="4" height="4"/><rect x="176.45" y="166.48" width="4" height="4"/><rect x="180.45" y="166.48" width="4" height="4"/><rect x="184.45" y="166.48" width="4" height="4"/><rect x="188.45" y="166.48" width="4" height="4"/></g><rect x="192.45" y="166.48" width="4" height="4" fill="#030100"/><rect x="196.45" y="166.48" width="4" height="4" fill="#030100"/><g><rect x="136.45" y="178.48" width="4" height="4"/><rect x="140.45" y="178.48" width="4" height="4"/><rect x="144.45" y="178.48" width="4" height="4"/><rect x="148.45" y="178.48" width="4" height="4"/><rect x="152.45" y="178.48" width="4" height="4"/></g><g fill="#f2cd00"><rect x="156.45" y="178.48" width="4" height="4"/><rect x="160.45" y="178.48" width="4" height="4"/><rect x="164.45" y="178.48" width="4" height="4"/><rect x="168.45" y="178.48" width="4" height="4"/><rect x="172.45" y="178.48" width="4" height="4"/><rect x="176.45" y="178.48" width="4" height="4"/></g><g fill="#030100"><rect x="180.45" y="178.48" width="4" height="4"/><rect x="184.45" y="178.48" width="4" height="4"/><rect x="188.45" y="178.48" width="4" height="4"/><rect x="192.45" y="178.48" width="4" height="4"/><rect x="196.45" y="178.48" width="4" height="4"/></g><g><rect x="136.45" y="174.48" width="4" height="4"/><rect x="140.45" y="174.48" width="4" height="4"/><rect x="144.45" y="174.48" width="4" height="4"/></g><g fill="#f2cd00"><rect x="148.45" y="174.48" width="4" height="4"/><rect x="152.45" y="174.48" width="4" height="4"/><rect x="156.45" y="174.48" width="4" height="4"/><rect x="160.45" y="174.48" width="4" height="4"/><rect x="164.45" y="174.48" width="4" height="4"/><rect x="168.45" y="174.48" width="4" height="4"/><rect x="172.45" y="174.48" width="4" height="4"/><rect x="176.45" y="174.48" width="4" height="4"/><rect x="180.45" y="174.48" width="4" height="4"/><rect x="184.45" y="174.48" width="4" height="4"/></g><rect x="188.45" y="174.48" width="4" height="4" fill="#030100"/><rect x="192.45" y="174.48" width="4" height="4"/><rect x="196.45" y="174.48" width="4" height="4" fill="#030100"/><g><rect x="136.45" y="154.48" width="4" height="4"/><rect x="140.45" y="154.48" width="4" height="4"/><rect x="144.45" y="154.48" width="4" height="4"/></g><g fill="#f2cd00"><rect x="148.45" y="154.48" width="4" height="4"/><rect x="152.45" y="154.48" width="4" height="4"/><rect x="156.45" y="154.48" width="4" height="4"/><rect x="160.45" y="154.48" width="4" height="4"/><rect x="164.45" y="154.48" width="4" height="4"/><rect x="168.45" y="154.48" width="4" height="4"/><rect x="172.45" y="154.48" width="4" height="4"/><rect x="176.45" y="154.48" width="4" height="4"/><rect x="180.45" y="154.48" width="4" height="4"/><rect x="184.45" y="154.48" width="4" height="4"/><rect x="188.45" y="154.48" width="4" height="4"/><rect x="192.45" y="154.48" width="4" height="4"/></g><rect x="196.45" y="154.48" width="4" height="4" fill="#030100"/><g><rect x="136.45" y="150.48" width="4" height="4"/><rect x="140.45" y="150.48" width="4" height="4"/><rect x="144.45" y="150.48" width="4" height="4"/></g><g fill="#f2cd00"><rect x="148.45" y="150.48" width="4" height="4"/><rect x="152.45" y="150.48" width="4" height="4"/><rect x="156.45" y="150.48" width="4" height="4"/><rect x="160.45" y="150.48" width="4" height="4"/><rect x="164.45" y="150.48" width="4" height="4"/><rect x="168.45" y="150.48" width="4" height="4"/><rect x="172.45" y="150.48" width="4" height="4"/><rect x="176.45" y="150.48" width="4" height="4"/><rect x="180.45" y="150.48" width="4" height="4"/><rect x="184.45" y="150.48" width="4" height="4"/><rect x="188.45" y="150.48" width="4" height="4"/></g><rect x="192.45" y="150.48" width="4" height="4" fill="#030100"/><rect x="196.45" y="150.48" width="4" height="4" fill="#030100"/><g><rect x="136.45" y="162.48" width="4" height="4"/><rect x="140.45" y="162.48" width="4" height="4"/><rect x="144.45" y="162.48" width="4" height="4"/></g><g fill="#f2cd00"><rect x="148.45" y="162.48" width="4" height="4"/><rect x="152.45" y="162.48" width="4" height="4"/><rect x="156.45" y="162.48" width="4" height="4"/><rect x="160.45" y="162.48" width="4" height="4"/><rect x="164.45" y="162.48" width="4" height="4"/><rect x="168.45" y="162.48" width="4" height="4"/><rect x="172.45" y="162.48" width="4" height="4"/><rect x="176.45" y="162.48" width="4" height="4"/><rect x="180.45" y="162.48" width="4" height="4"/><rect x="184.45" y="162.48" width="4" height="4"/><rect x="188.45" y="162.48" width="4" height="4"/><rect x="192.45" y="162.48" width="4" height="4"/></g><rect x="196.45" y="162.48" width="4" height="4" fill="#030100"/><g><rect x="136.45" y="158.48" width="4" height="4"/><rect x="140.45" y="158.48" width="4" height="4"/><rect x="144.45" y="158.48" width="4" height="4"/></g><g fill="#f2cd00"><rect x="148.45" y="158.48" width="4" height="4"/><rect x="152.45" y="158.48" width="4" height="4"/><rect x="156.45" y="158.48" width="4" height="4"/><rect x="160.45" y="158.48" width="4" height="4"/><rect x="164.45" y="158.48" width="4" height="4"/><rect x="168.45" y="158.48" width="4" height="4"/><rect x="172.45" y="158.48" width="4" height="4"/><rect x="176.45" y="158.48" width="4" height="4"/><rect x="180.45" y="158.48" width="4" height="4"/><rect x="184.45" y="158.48" width="4" height="4"/><rect x="188.45" y="158.48" width="4" height="4"/><rect x="192.45" y="158.48" width="4" height="4"/></g><rect x="196.45" y="158.48" width="4" height="4" fill="#030100"/></g><circle cx="143.17" cy="60.555" r="24.737" fill="none" stroke="#797979" stroke-linecap="round" stroke-opacity=".96934" stroke-width=".149"/><g transform="matrix(1.0572 0 0 1.0572 -.80634 -92.439)" fill="#fffef9" stroke="#797979" stroke-linecap="round"><g stroke-width=".20145"><path transform="matrix(.86703 0 0 1.0007 14.972 -.10557)" d="m112.73 121.29h54.198"/><path transform="matrix(.86703 0 0 1.0007 14.972 -.10557)" d="m112.73 124.22h54.198"/><path transform="matrix(.86703 0 0 1.0007 14.972 -.10557)" d="m112.73 127.16h54.198"/><path transform="matrix(.86703 0 0 1.0007 14.972 -.10557)" d="m112.73 130.09h54.198"/><path transform="matrix(.86703 0 0 1.0007 14.972 -.10557)" d="m112.73 133.03h54.198"/><path transform="matrix(.86703 0 0 1.0007 14.972 -.10557)" d="m112.73 135.97h54.198"/><path transform="matrix(.86703 0 0 1.0007 14.972 -.10557)" d="m112.73 138.9h54.198"/><path transform="matrix(.86703 0 0 1.0007 14.972 -.10557)" d="m112.73 141.84h54.198"/><path transform="matrix(.86703 0 0 1.0007 14.972 -.10557)" d="m112.73 144.78h54.198"/><path transform="matrix(.86703 0 0 1.0007 14.972 -.10557)" d="m112.73 147.71h54.198"/><path transform="matrix(.86703 0 0 1.0007 14.972 -.10557)" d="m112.73 150.65h54.198"/><path transform="matrix(.86703 0 0 1.0007 14.972 -.10557)" d="m112.73 153.59h54.198"/><path transform="matrix(.86703 0 0 1.0007 14.972 -.10557)" d="m112.73 156.52h54.198"/><path transform="matrix(.86703 0 0 1.0007 14.972 -.10557)" d="m112.73 159.46h54.198"/><path transform="matrix(.86703 0 0 1.0007 14.972 -.10557)" d="m112.73 162.39h54.198"/><path transform="matrix(.86703 0 0 1.0007 14.972 -.10557)" d="m112.73 165.33h54.198"/><path transform="matrix(.86703 0 0 1.0007 14.972 -.10557)" d="m112.73 168.27h54.198"/></g><g transform="matrix(1.0007 0 0 .86438 -4.3803 20.595)" stroke-width=".20176"><path d="m163.98 116.47v54.198"/><path d="m161.05 116.47v54.198"/><path d="m158.11 116.47v54.198"/><path d="m155.17 116.47v54.198"/><path d="m152.24 116.47v54.198"/><path d="m149.3 116.47v54.198"/><path d="m146.36 116.47v54.198"/><path d="m143.43 116.47v54.198"/><path d="m140.49 116.47v54.198"/><path d="m137.56 116.47v54.198"/><path d="m134.62 116.47v54.198"/><path d="m131.68 116.47v54.198"/><path d="m128.75 116.47v54.198"/><path d="m125.81 116.47v54.198"/><path d="m122.87 116.47v54.198"/><path d="m119.94 116.47v54.198"/><path d="m117 116.47v54.198"/></g></g></g></svg>
